<svg xmlns="http://www.w3.org/2000/svg"  viewBox="0 0 100 100" >
<circle cx="50" cy="50" r="25px" fill="none" stroke="#fff" stroke-width="15"></circle>
<polygon points="42,20 45,8 55,8 58,20" fill="#fff" stroke="#fff" stroke-width="2" transform="rotate(0, 50,50)"/>
<polygon points="42,20 45,8 55,8 58,20" fill="#fff" stroke="#fff" stroke-width="2" transform="rotate(45, 50,50)"/>
<polygon points="42,20 45,8 55,8 58,20" fill="#fff" stroke="#fff" stroke-width="2" transform="rotate(90, 50,50)"/>
<polygon points="42,20 45,8 55,8 58,20" fill="#fff" stroke="#fff" stroke-width="2" transform="rotate(135, 50,50)"/>
<polygon points="42,20 45,8 55,8 58,20" fill="#fff" stroke="#fff" stroke-width="2" transform="rotate(180, 50,50)"/>
<polygon points="42,20 45,8 55,8 58,20" fill="#fff" stroke="#fff" stroke-width="2" transform="rotate(225, 50,50)"/>
<polygon points="42,20 45,8 55,8 58,20" fill="#fff" stroke="#fff" stroke-width="2" transform="rotate(270, 50,50)"/>
<polygon points="42,20 45,8 55,8 58,20" fill="#fff" stroke="#fff" stroke-width="2" transform="rotate(315, 50,50)"/>
</svg>
